<?xml version="1.0" encoding="UTF-8"?>
<svg version="1.1" viewBox="0 0 1000 919" width="1000" height="919" xmlns="http://www.w3.org/2000/svg">
<path transform="translate(478,97)" d="m0 0h44l31 3 28 5 26 7 24 8 23 10 16 8 20 11 18 12 16 12 11 9 20 18 12 12 7 8 11 13 12 16 10 15 9 15 11 20 11 25 8 22 8 29 5 25 3 24 1 14v44l-3 31-5 28-7 26-8 24-10 23-8 16-11 20-12 18-12 16-9 11-18 20-12 12-8 7-13 11-16 12-15 10-15 9-20 11-25 11-22 8-29 8-25 5-24 3-14 1h-44l-31-3-28-5-26-7-24-8-23-10-16-8-20-11-18-12-16-12-11-9-20-18-12-12-7-8-11-13-12-16-10-15-9-15-11-20-11-25-8-22-8-29-5-25-3-24-1-14v-44l3-31 5-28 7-26 8-24 10-23 8-16 11-20 12-18 12-16 9-11 18-20 12-12 8-7 13-11 16-12 15-10 15-9 20-11 25-11 22-8 29-8 25-5 24-3zm-4 54-31 4-26 6-20 6-21 8-29 14-20 12-14 10-13 10-6 5 2 4 106 106 7-4 10-7 16-8 16-6 15-4 13-3v-153zm44 1v152l25 5 20 7 16 8 11 7 5 3 105-105-4-5-17-13-14-10-22-13-29-14-28-10-27-7-23-4-8-1zm-256 106-10 12-13 18-15 25-14 29-10 28-7 27-4 23-2 18v5h157l4-22 6-19 8-18 9-14v-4l-108-108zm469 2-105 105 7 11 9 16 6 15 6 23 2 13h149l-1-15-4-26-6-25-10-30-11-24-10-19-12-19-9-12-8-10zm-242 96-20 4-17 7-16 10-12 11-9 10-8 13-6 13-4 12-2 11v26l4 18 7 16 4 7 4-2 79-79h8l69 69 8 7 7 7 4-5 7-15 5-17 1-6v-26l-4-17-6-15-8-14-9-11-10-10-15-10-17-8-13-4-13-2zm-301 129 1 15 4 23 7 27 10 28 16 33 13 21 11 15 8 10 5 5 39-39 8-7 62-62-1-4-10-16-7-16-6-19-3-14zm467 1-5 20-6 17-8 16-7 11-4 6 58 58 8 7 39 39h2l11-14 12-17 13-22 14-29 10-28 7-27 4-23 1-14zm-157 16-10 10-8 7-97 97-8 7-75 75 5 5 16 12 21 13 23 12 21 9 27 9 25 6 26 4 10 1h44l31-4 26-6 20-6 21-8 29-14 20-12 14-10 13-10 2-3-103-103-8-7-84-84z" fill="#AFC8B2"/>
</svg>
